<svg width="34" height="31" viewBox="0 0 34 31" fill="none" xmlns="http://www.w3.org/2000/svg">
<path d="M21.2509 8.46522H21.7547C23.4113 8.46522 25.0679 8.45951 26.7245 8.46522C28.1568 8.47321 29.5328 8.75291 30.7116 9.61257C33.1052 11.3581 34.2671 13.7373 33.9482 16.7295C33.6563 19.4786 33.272 22.2197 32.8663 24.9493C32.6161 26.6287 31.7811 28.0112 30.5437 29.1734C29.126 30.5091 27.4401 31 25.5626 31C19.4974 31 13.4322 31 7.36698 31C5.96957 31 4.61837 30.7523 3.43508 29.9588C1.49674 28.6619 0.200757 26.8444 0.0891893 24.487C-0.060694 21.3189 0.00579556 18.1383 0.0891893 14.9657C0.108347 14.1666 0.427269 13.3195 0.776621 12.5785C1.79087 10.438 3.44184 9.03946 5.79152 8.59993C6.30157 8.51141 6.81795 8.46559 7.33543 8.46294C8.42969 8.44239 9.52507 8.44924 10.6193 8.46294C10.7198 8.47524 10.8214 8.45195 10.9068 8.39701C10.9923 8.34208 11.0564 8.25888 11.0881 8.16154C12.0303 6.11916 12.9611 4.07106 13.954 2.05607C14.167 1.62339 14.5727 1.24322 14.9682 0.960096C15.7379 0.414394 16.5797 -0.0902103 17.5602 0.0136788C19.6608 0.242006 21.3005 1.50466 21.7039 3.81876C21.8888 4.88276 21.5913 5.89996 21.4786 6.93543C21.4256 7.4309 21.3343 7.91495 21.2509 8.46522ZM12.72 28.0534C12.8653 28.0626 12.951 28.0728 13.0378 28.0728C17.3585 28.0728 21.6784 28.0728 25.9976 28.0728C26.8564 28.0742 27.6904 27.7813 28.3642 27.2417C29.4911 26.3718 30.0399 25.2187 30.2281 23.8533C30.5561 21.4696 30.8356 19.0779 31.1827 16.6964C31.5793 13.9565 29.5103 11.325 26.7752 11.3947C24.439 11.454 22.1006 11.4095 19.7622 11.4049C18.739 11.4049 18.1225 10.7359 18.2386 9.7039C18.3423 8.78374 18.5147 7.87157 18.6511 6.95483C18.7637 6.18651 18.9159 5.41933 18.9655 4.64644C19.0207 3.80734 18.5248 3.22967 17.7427 3.08582C17.0192 2.95225 16.3589 3.35183 16.0692 4.09161C16.0095 4.24345 15.9284 4.38729 15.8596 4.53685C15.2961 5.75383 14.7327 6.97424 14.1692 8.19009C13.7714 9.04061 13.351 9.88199 12.9566 10.7348C12.8496 10.9631 12.7312 11.2234 12.7312 11.4689C12.7185 16.8353 12.7155 22.201 12.7222 27.566L12.72 28.0534ZM9.89584 11.4346C8.76101 11.4346 7.669 11.4072 6.57925 11.4426C5.77236 11.4689 5.09732 11.8867 4.47187 12.3685C3.2728 13.2921 2.79723 14.5798 2.78145 16.0514C2.75816 18.5242 2.76042 20.9977 2.78821 23.472C2.80302 24.0238 2.90068 24.5701 3.07784 25.092C3.55003 26.5351 4.53047 27.5146 5.98422 27.889C6.67166 28.066 7.41544 28.0363 8.13556 28.0694C8.71931 28.0957 9.30532 28.0694 9.90147 28.0694L9.89584 11.4346Z" fill="#8066FF"/>
</svg>
