<svg width="695" height="156" viewBox="0 0 695 156" fill="none" xmlns="http://www.w3.org/2000/svg">
<g clip-path="url(#clip0_704_671)">
<path d="M189.683 68.8435C192.699 70.7584 195.119 73.4898 196.665 76.7253C198.393 80.2577 199.261 84.1539 199.197 88.0912C199.247 92.0339 198.38 95.9336 196.665 99.4784C195.11 102.747 192.695 105.525 189.683 107.509C186.744 109.443 183.299 110.449 179.789 110.398C176.718 110.411 173.701 109.589 171.056 108.019C168.416 106.446 166.189 104.261 164.558 101.645V107.148C164.573 107.831 164.324 108.494 163.862 108.996C163.393 109.484 162.743 109.754 162.069 109.74C161.4 109.755 160.757 109.485 160.297 108.996C159.836 108.494 159.586 107.831 159.601 107.148V50.5093C159.583 49.8378 159.834 49.1872 160.297 48.7035C160.767 48.2343 161.408 47.9807 162.069 48.0025C162.738 47.9719 163.389 48.2262 163.863 48.7031C164.336 49.18 164.589 49.8356 164.558 50.5093V75.0894C166.059 72.3738 168.241 70.1027 170.887 68.5036C173.549 66.8502 176.619 65.9817 179.747 65.9967C183.262 65.962 186.712 66.9506 189.683 68.8435ZM187.067 103.43C189.402 101.838 191.262 99.6341 192.446 97.0565C193.775 94.2595 194.447 91.1917 194.408 88.0912C194.458 84.9895 193.786 81.9191 192.446 79.1259C191.251 76.6011 189.39 74.4553 187.067 72.9225C184.766 71.4126 182.071 70.6285 179.325 70.6706C173.626 70.5867 168.425 73.9284 166.098 79.1684C164.794 81.9874 164.137 85.0664 164.179 88.1762C164.133 91.3047 164.804 94.4017 166.14 97.2264C167.314 99.8112 169.176 102.017 171.52 103.6C173.833 105.138 176.553 105.938 179.325 105.894C182.081 105.881 184.767 105.021 187.025 103.43H187.067Z" fill="white"/>
<path d="M215.325 108.503C214.87 108.969 214.25 109.22 213.61 109.199C212.964 109.221 212.337 108.97 211.875 108.503C211.424 108.034 211.18 107.393 211.201 106.732V50.4889C211.184 49.8225 211.427 49.177 211.875 48.697C212.337 48.2303 212.964 47.979 213.61 48.0014C214.25 47.9798 214.87 48.2314 215.325 48.697C215.773 49.177 216.016 49.8225 215.999 50.4889V106.732C216.02 107.393 215.776 108.034 215.325 108.503Z" fill="white"/>
<path d="M262.088 86.9784C261.641 87.4186 261.043 87.6634 260.421 87.6604H230.259C230.236 90.6917 230.934 93.6838 232.292 96.3823C233.548 98.9009 235.478 101.007 237.861 102.459C240.462 103.995 243.431 104.768 246.438 104.691C248.825 104.735 251.186 104.174 253.307 103.058C255.214 102.073 256.875 100.659 258.165 98.9245C258.624 98.4984 259.211 98.2433 259.831 98.2011C260.928 98.2626 261.803 99.1529 261.864 100.268C261.84 100.919 261.553 101.532 261.071 101.963C259.304 104.117 257.117 105.876 254.649 107.13C252.144 108.479 249.354 109.188 246.519 109.196C242.734 109.265 238.996 108.339 235.666 106.51C232.539 104.792 229.959 102.204 228.227 99.0485C226.427 95.6255 225.524 91.7891 225.605 87.9084C225.534 83.8705 226.434 79.8761 228.227 76.2723C229.793 73.1294 232.185 70.4895 235.137 68.6458C237.892 66.9168 241.066 66.0008 244.304 66.0002C247.431 65.9874 250.512 66.7689 253.267 68.2738C256.094 69.8221 258.454 72.1224 260.096 74.9289C261.903 78.0599 262.838 81.6325 262.799 85.2629C262.813 85.9118 262.555 86.536 262.088 86.9784ZM235.666 73.9575C232.924 76.3383 231.125 79.6507 230.605 83.2788H257.799V82.6381C257.59 80.3325 256.76 78.13 255.401 76.2723C254.116 74.4838 252.402 73.0605 250.421 72.1387C248.516 71.2137 246.435 70.7268 244.324 70.7126C241.158 70.7571 238.111 71.9437 235.727 74.0608L235.666 73.9575Z" fill="white"/>
<path d="M303.596 69.3616C306.128 72.8051 307.392 77.0148 307.176 81.2806V105.539C307.203 106.207 306.933 106.853 306.439 107.305C305.976 107.752 305.356 108.002 304.712 107.998C304.045 108.021 303.398 107.77 302.922 107.305C302.456 106.837 302.205 106.198 302.226 105.539V81.4698C302.366 78.3447 301.413 75.2684 299.53 72.767C297.447 70.4087 294.371 69.1698 291.232 69.4247C286.524 69.4526 282.109 71.7066 279.331 75.4998C278.043 77.2243 277.348 79.3186 277.351 81.4698V105.539C277.373 106.198 277.121 106.837 276.656 107.305C276.177 107.766 275.532 108.016 274.866 107.998C274.205 108.022 273.565 107.771 273.097 107.304C272.63 106.838 272.378 106.198 272.402 105.539V68.5838C272.38 67.9249 272.631 67.2861 273.097 66.818C273.558 66.3394 274.201 66.0795 274.866 66.1033C275.53 66.0858 276.173 66.3415 276.643 66.8105C277.113 67.2796 277.369 67.9207 277.351 68.5838V73.0613C278.932 70.5982 281.104 68.5678 283.67 67.1544C286.267 65.6408 289.215 64.8293 292.222 64.8C297.424 64.8631 301.194 66.3766 303.596 69.3616Z" fill="white"/>
<path d="M356.903 48.7014C357.366 49.1845 357.616 49.8342 357.599 50.5048V107.11C357.62 107.775 357.369 108.42 356.903 108.892C356.423 109.358 355.778 109.61 355.112 109.592C354.451 109.616 353.81 109.363 353.342 108.892C352.875 108.421 352.622 107.776 352.646 107.11V101.276C351.162 103.927 349.039 106.16 346.472 107.768C343.782 109.525 340.636 110.44 337.431 110.399C333.927 110.432 330.49 109.429 327.547 107.513C324.543 105.547 322.125 102.797 320.551 99.5571C317.15 92.3772 317.15 84.0355 320.551 76.8556C322.125 73.6153 324.543 70.8656 327.547 68.8994C330.463 66.993 333.87 65.9897 337.347 66.014C340.513 65.9941 343.624 66.8451 346.345 68.4751C348.99 69.9767 351.176 72.1777 352.667 74.84V50.5048C352.65 49.8342 352.9 49.1845 353.363 48.7014C353.832 48.2328 354.472 47.9796 355.133 48.0013C355.792 47.9893 356.429 48.2411 356.903 48.7014ZM345.65 103.525C348 101.955 349.863 99.7483 351.024 97.1596C352.351 94.3369 353.014 91.2441 352.962 88.1215C353.01 85.0401 352.346 81.9897 351.024 79.2106C349.845 76.6335 347.986 74.4317 345.65 72.8457C340.939 69.7929 334.892 69.7929 330.181 72.8457C327.856 74.4437 325.999 76.6422 324.807 79.2106C322.223 84.8959 322.223 91.4319 324.807 97.1172C325.999 99.6856 327.856 101.884 330.181 103.482C332.473 105.01 335.168 105.808 337.916 105.773C340.657 105.805 343.347 105.023 345.65 103.525Z" fill="white"/>
<path d="M403.585 86.9781C403.14 87.4203 402.54 87.6654 401.917 87.6602H371.744C371.721 90.6915 372.419 93.6835 373.779 96.3821C375.044 98.9015 376.983 101.007 379.374 102.458C381.977 103.995 384.95 104.768 387.96 104.691C390.344 104.738 392.701 104.177 394.816 103.058C396.725 102.073 398.388 100.659 399.679 98.9242C400.144 98.4938 400.74 98.2385 401.368 98.2008C401.907 98.214 402.42 98.4445 402.792 98.8415C403.195 99.2212 403.43 99.7505 403.443 100.309C403.418 100.965 403.123 101.58 402.629 102.004C400.84 104.152 398.629 105.897 396.139 107.129C393.631 108.478 390.838 109.187 388 109.196C384.218 109.267 380.482 108.342 377.156 106.509C374.054 104.77 371.506 102.167 369.811 99.0069C368.023 95.5943 367.127 91.7731 367.207 87.9082C367.113 83.8726 368 79.8758 369.791 76.2722C371.351 73.1307 373.739 70.4906 376.688 68.6457C379.455 66.919 382.637 66.0034 385.884 66.0001C389.015 65.9899 392.098 66.7712 394.857 68.2737C397.677 69.8283 400.032 72.1276 401.673 74.9287C403.488 78.0581 404.431 81.6305 404.399 85.2627C404.397 85.93 404.098 86.5603 403.585 86.9781ZM377.136 73.9574C374.378 76.3271 372.574 79.645 372.07 83.2786H399.353V82.6379C399.142 80.3362 398.319 78.1362 396.973 76.2722C395.682 74.488 393.967 73.0658 391.988 72.1386C390.08 71.2174 387.997 70.7307 385.884 70.7125C382.694 70.7386 379.618 71.9266 377.217 74.0607L377.136 73.9574Z" fill="white"/>
<path d="M451.703 48.7014C452.165 49.1845 452.416 49.8342 452.399 50.5048V107.11C452.42 107.775 452.168 108.42 451.703 108.893C451.222 109.358 450.576 109.61 449.909 109.593C449.248 109.617 448.606 109.363 448.138 108.892C447.67 108.421 447.417 107.776 447.441 107.11V101.276C445.956 103.928 443.83 106.16 441.26 107.768C438.574 109.521 435.432 110.436 432.23 110.399C428.723 110.432 425.282 109.429 422.336 107.513C419.347 105.55 416.936 102.818 415.353 99.5997C411.949 92.4198 411.949 84.0781 415.353 76.8981C416.936 73.662 419.355 70.9138 422.357 68.9419C425.294 67.0235 428.729 66.0197 432.23 66.0565C435.4 66.0366 438.515 66.8876 441.239 68.5176C443.886 70.0192 446.075 72.2202 447.568 74.8826V50.5048C447.55 49.8342 447.801 49.1845 448.264 48.7014C448.734 48.2328 449.375 47.9796 450.036 48.0013C450.659 48.0166 451.254 48.2665 451.703 48.7014ZM440.437 103.525C442.79 101.955 444.655 99.7485 445.817 97.1598C447.145 94.3371 447.81 91.2443 447.757 88.1216C447.805 85.0402 447.141 81.9898 445.817 79.2107C444.637 76.6336 442.776 74.4319 440.437 72.8458C435.73 69.7913 429.68 69.7913 424.973 72.8458C422.634 74.4319 420.773 76.6336 419.594 79.2107C416.966 84.8872 416.966 91.4409 419.594 97.1174C420.773 99.6945 422.634 101.896 424.973 103.482C427.258 105.012 429.95 105.811 432.695 105.774C435.439 105.805 438.132 105.023 440.437 103.525Z" fill="white"/>
<path d="M476.402 98.8161C476.564 96.3561 478.532 94.4273 480.942 94.3663C482.208 94.4116 483.401 94.9867 484.242 95.957C485.706 97.5654 487.453 98.878 489.391 99.8265C491.432 100.731 493.642 101.164 495.865 101.095C500.153 100.923 502.297 99.2676 502.297 96.129C502.347 94.5809 501.531 93.1386 500.195 92.4101C498.03 91.2998 495.744 90.4555 493.385 89.8949C490.734 89.1784 488.135 88.2734 485.608 87.1863C483.576 86.2704 481.789 84.8698 480.395 83.1019C478.878 80.9604 478.135 78.3465 478.293 75.707C478.246 73.1679 479.047 70.6881 480.563 68.6775C482.127 66.6361 484.174 65.0377 486.512 64.0341C488.964 62.9399 491.613 62.3833 494.289 62.4C497.162 62.409 500.01 62.9478 502.696 63.9912C505.28 64.904 507.56 66.543 509.275 68.7205C509.972 69.5694 510.351 70.6433 510.347 71.7515C510.367 73.0141 509.788 74.2083 508.792 74.9546C508.038 75.563 507.103 75.8892 506.143 75.8789C505.038 75.919 503.966 75.4913 503.18 74.6966C502.14 73.4303 500.832 72.4231 499.354 71.7515C497.68 70.9959 495.866 70.6218 494.036 70.6552C489.833 70.6552 487.731 72.203 487.731 75.2985C487.683 76.4174 488.103 77.5043 488.887 78.2866C489.721 79.0929 490.719 79.702 491.809 80.0708C492.986 80.4721 494.646 80.988 496.79 81.6186C499.323 82.3055 501.803 83.1821 504.21 84.2412C506.155 85.1944 507.833 86.6366 509.086 88.4331C510.566 90.5685 511.306 93.1487 511.188 95.7636C511.231 98.3824 510.384 100.935 508.792 102.987C507.199 105.014 505.131 106.597 502.78 107.587C500.34 108.645 497.717 109.194 495.066 109.199C491.6 109.227 488.158 108.6 484.914 107.35C481.802 106.166 479.098 104.073 477.137 101.331C476.634 100.596 476.376 99.7136 476.402 98.8161Z" fill="white"/>
<path d="M557.605 88.0859C556.648 88.9265 555.423 89.3778 554.163 89.3541H527.007C527.54 92.4154 529.153 95.1693 531.54 97.0921C533.803 98.9419 536.619 99.9363 539.514 99.9079C541.291 99.9773 543.068 99.7671 544.782 99.2845C545.837 98.9527 546.85 98.4984 547.804 97.9304L549.315 96.9632C550.185 96.497 551.146 96.2397 552.127 96.2108C554.445 96.2108 556.325 98.1355 556.325 100.51C556.243 102.184 555.385 103.718 554.016 104.637C552.16 106.068 550.071 107.153 547.846 107.839C545.328 108.73 542.683 109.188 540.018 109.193C535.815 109.292 531.659 108.277 527.951 106.249C524.604 104.361 521.852 101.535 520.018 98.1024C518.115 94.525 517.146 90.5045 517.206 86.4309C517.111 81.9928 518.13 77.6041 520.165 73.6847C521.983 70.2143 524.689 67.3164 527.993 65.3018C531.13 63.3949 534.712 62.3923 538.36 62.4C541.992 62.3996 545.549 63.4502 548.623 65.4308C551.821 67.4455 554.47 70.2551 556.325 73.5987C558.223 76.9861 559.215 80.8269 559.2 84.7328C559.194 86.0408 558.607 87.275 557.605 88.0859ZM527.07 80.9283H548.644V80.3265C548.405 77.9076 547.177 75.7053 545.265 74.265C543.323 72.6049 540.868 71.706 538.339 71.7287C532.001 71.7287 528.252 74.7952 527.091 80.9283H527.07Z" fill="white"/>
<path d="M601.672 68.4949C603.951 72.6614 605.023 77.4072 604.762 82.1756V102.999C604.796 104.321 604.313 105.604 603.42 106.559C601.513 108.48 598.455 108.48 596.549 106.559C595.655 105.604 595.172 104.321 595.207 102.999V82.1756C595.349 79.6799 594.7 77.2039 593.357 75.1166C591.81 73.2442 589.458 72.2774 587.076 72.5345C584.383 72.3813 581.749 73.3763 579.798 75.2832C578.042 77.1177 577.095 79.6078 577.176 82.1756V102.999C577.212 104.326 576.721 105.611 575.814 106.559C573.914 108.478 570.863 108.478 568.963 106.559C568.064 105.606 567.574 104.324 567.601 102.999V69.3486C567.574 68.0233 568.064 66.7416 568.963 65.7879C570.876 63.9024 573.901 63.9024 575.814 65.7879C576.721 66.7364 577.212 68.0216 577.176 69.3486V70.7438C578.714 68.6979 580.626 66.9791 582.807 65.6838C585.105 64.2837 587.736 63.5629 590.41 63.6015C595.844 63.5737 599.598 65.2048 601.672 68.4949Z" fill="white"/>
<path d="M612.003 98.8162C612.012 97.2894 612.811 95.8821 614.103 95.1187C614.801 94.6287 615.628 94.3665 616.475 94.3663C617.74 94.4117 618.931 94.9867 619.771 95.9571C621.238 97.5606 622.981 98.8724 624.914 99.8266C626.952 100.731 629.16 101.164 631.38 101.095C635.663 100.923 637.804 99.2676 637.804 96.1291C637.859 94.5797 637.043 93.1348 635.705 92.4101C633.549 91.3029 631.273 90.4587 628.924 89.895C626.27 89.1784 623.667 88.2733 621.135 87.1864C619.112 86.2704 617.334 84.8695 615.95 83.1019C614.435 80.9604 613.693 78.3466 613.851 75.707C613.803 73.1679 614.603 70.6881 616.118 68.6775C617.676 66.6417 619.713 65.0441 622.038 64.0341C624.495 62.94 627.148 62.3835 629.827 62.4C632.697 62.4066 635.542 62.9456 638.224 63.9911C640.809 64.9087 643.091 66.5466 644.816 68.7205C645.512 69.5694 645.891 70.6433 645.887 71.7515C645.899 73.0172 645.312 74.2105 644.312 74.9546C643.57 75.5678 642.642 75.8949 641.688 75.879C640.583 75.9269 639.509 75.498 638.728 74.6966C637.687 73.4243 636.372 72.4163 634.886 71.7515C633.214 70.9959 631.402 70.6218 629.575 70.6552C625.376 70.6552 623.277 72.203 623.277 75.2985C623.229 76.4175 623.649 77.5043 624.431 78.2866C625.272 79.0838 626.266 79.6917 627.349 80.0709C628.525 80.4793 630.205 80.9952 632.346 81.6186C634.875 82.309 637.351 83.1854 639.757 84.2413C641.723 85.1852 643.421 86.6282 644.69 88.4332C646.16 90.5729 646.898 93.15 646.79 95.7636C646.812 98.363 645.96 100.891 644.375 102.922C642.758 104.991 640.646 106.598 638.245 107.587C635.809 108.649 633.188 109.198 630.541 109.199C627.085 109.225 623.655 108.598 620.422 107.35C617.344 106.151 614.673 104.06 612.738 101.331C612.227 100.6 611.968 99.715 612.003 98.8162Z" fill="white"/>
<path d="M693.165 87.9397C692.203 88.7412 690.973 89.17 689.708 89.1444H662.592C663.125 92.0475 664.727 94.6613 667.097 96.4951C669.363 98.2567 672.183 99.2016 675.081 99.1699C676.855 99.2343 678.629 99.0346 680.341 98.5778C681.387 98.263 682.393 97.8313 683.337 97.2914L684.867 96.3726C685.727 95.9273 686.681 95.6826 687.654 95.6579C688.769 95.6362 689.842 96.0736 690.609 96.8626C691.405 97.5847 691.854 98.5998 691.845 99.66C691.774 101.254 690.915 102.715 689.54 103.58C687.693 104.969 685.607 106.027 683.379 106.704C680.872 107.551 678.237 107.985 675.584 107.991C671.393 108.105 667.243 107.162 663.535 105.255C660.187 103.462 657.433 100.778 655.593 97.516C653.7 94.1158 652.74 90.2967 652.806 86.4287C652.712 82.2128 653.729 78.0438 655.761 74.3205C657.568 71.0183 660.272 68.2636 663.577 66.3573C666.734 64.5315 670.341 63.5786 674.012 63.6004C677.632 63.6004 681.177 64.5989 684.238 66.4798C687.437 68.3873 690.084 71.0577 691.929 74.2388C693.834 77.4529 694.825 81.104 694.799 84.8157C694.765 86.0435 694.164 87.1909 693.165 87.9397ZM662.676 81.1403H684.196V80.5686C683.963 78.2742 682.745 76.1827 680.844 74.8106C678.927 73.2517 676.509 72.3989 674.012 72.4012C667.579 72.4012 663.807 75.321 662.676 81.1403Z" fill="white"/>
<path d="M54.9174 31.9213L54.5984 62.0453C44.5722 63.8926 37.6004 72.9229 38.4738 82.9305C39.3472 92.9381 47.7816 100.664 57.9808 100.8H58.2573C69.0657 100.733 77.8369 92.1699 77.9987 81.5274C78.1123 71.7211 70.8362 63.3469 60.9803 61.9405L61.4057 32.0051C61.4057 30.235 59.9485 28.8 58.151 28.8C56.3534 28.8 54.8962 30.235 54.8962 32.0051L54.9174 31.9213ZM60.7888 78.5736L60.9803 67.5128C67.7006 68.8422 72.5083 74.694 72.4252 81.4436C72.4064 85.1548 70.8732 88.7028 68.1706 91.2894C63.9103 95.3972 57.5013 96.4543 52.1142 93.9378C46.7271 91.4213 43.5041 85.8647 44.0397 80.0169C44.5753 74.1691 48.7559 69.27 54.5133 67.7433L54.3643 78.4689C54.3453 79.614 54.9482 80.6821 55.9457 81.2708C56.9432 81.8595 58.1839 81.8795 59.2005 81.3232C60.217 80.7668 60.8549 79.7187 60.8739 78.5736H60.7888Z" fill="white"/>
<path d="M72.2155 45.9564C82.7878 50.3693 90.8303 59.2025 94.1651 70.0639C94.5329 71.2175 95.615 72.0014 96.8378 72C97.7114 71.9886 98.5295 71.5744 99.0497 70.8801C99.5699 70.1858 99.7325 69.291 99.4894 68.4609C95.6668 56.0495 86.4688 45.9589 74.3831 40.9183C73.0139 40.5084 71.5539 41.1941 71.0095 42.5027C70.4651 43.8114 71.0144 45.3151 72.2786 45.9772L72.2155 45.9564Z" fill="white"/>
<path d="M90.7311 114.452C89.2264 113.544 87.2864 114.047 86.3871 115.577L66.4338 151.135C66.0064 151.88 65.8889 152.768 66.1077 153.602C66.3264 154.436 66.8631 155.145 67.5977 155.572C69.1203 156.456 71.0561 155.927 71.9417 154.383L91.999 118.889C92.4123 118.13 92.5109 117.233 92.2726 116.4C92.0344 115.566 91.4792 114.865 90.7311 114.452Z" fill="white"/>
<path d="M94.0765 102.073C92.1359 102.472 90.8819 104.363 91.2707 106.306C91.6594 108.249 93.5448 109.512 95.4892 109.133C97.4336 108.753 98.7059 106.874 98.3361 104.928C98.1562 103.981 97.6041 103.146 96.8035 102.609C96.0029 102.073 95.0206 101.88 94.0765 102.073Z" fill="white"/>
<path d="M101.799 92.4158C101.366 91.1734 100.29 90.2661 98.9928 90.0493C97.6952 89.8325 96.3828 90.3408 95.5698 91.375C94.7568 92.4092 94.5727 93.8046 95.0897 95.0143C95.852 96.798 97.8907 97.6568 99.6996 96.9562C101.509 96.2556 102.437 94.2477 101.799 92.4158Z" fill="white"/>
<path d="M67.4127 122.802C68.863 122.488 69.8084 121.102 69.5606 119.653C69.3129 118.204 67.9594 117.203 66.4853 117.378C65.3261 117.566 57.4225 117.629 55.9472 117.566C40.5491 116.911 26.9972 107.311 21.4031 93.0964C20.4251 90.6051 19.7185 88.0176 19.2955 85.3778C19.2955 85.0232 19.2955 84.6686 19.2955 84.3139C19.3061 84.1542 19.3061 83.9939 19.2955 83.8341C19.2955 83.5629 19.2955 83.3335 19.2955 83.0623C19.1366 70.7764 24.4571 59.0459 33.8382 50.999C36.9037 48.763 40.1951 46.8475 43.6597 45.2831C45.0914 44.7071 45.7803 43.0913 45.1983 41.6742C44.6163 40.2571 42.9838 39.5753 41.5521 40.1514C37.5761 41.8825 33.8023 44.0369 30.2973 46.5765C33.5671 42.5582 37.0422 38.7078 40.709 35.0404C49.9194 25.5696 58.6028 16.5994 59.3615 2.91462C59.4488 1.39382 58.274 0.090929 56.7375 0.00452029C55.201 -0.0818885 53.8847 1.08091 53.7974 2.6017C53.144 14.263 45.5355 22.1275 36.7045 31.2437C26.061 42.3209 14.1529 54.7331 13.4363 76.4494C13.3211 76.7207 13.2568 77.0105 13.2466 77.3047C13.1084 80.2346 13.2779 83.1709 13.7525 86.0662C13.7525 86.5043 13.7525 86.9633 13.8789 87.4013C13.9229 87.7087 14.0229 88.0055 14.174 88.2775C14.6949 90.6025 15.3996 92.8833 16.2816 95.099C22.4764 110.809 37.2103 121.623 54.1978 122.927C54.0633 123.288 53.992 123.669 53.9871 124.054V133.608C53.9871 135.371 55.4308 136.8 57.2117 136.8C58.9927 136.8 60.4364 135.371 60.4364 133.608V124.054C60.4232 123.721 60.3665 123.392 60.2678 123.074C62.6525 123.1 65.037 123.01 67.4127 122.802Z" fill="white"/>
</g>
<defs>
<clipPath id="clip0_704_671">
<rect width="695" height="156" fill="white"/>
</clipPath>
</defs>
</svg>
