<svg width="50" height="63" viewBox="0 0 50 63" fill="none" xmlns="http://www.w3.org/2000/svg">
<path d="M39.3894 55.3649C37.3005 55.3649 35.2144 55.3649 33.1254 55.3649C32.5623 55.3649 32.3231 55.5373 32.2181 56.1118C31.6345 59.3435 28.7782 61.7537 25.3209 61.9863C22.2458 62.1903 19.0802 60.0875 18.0474 57.1402C17.9103 56.7829 17.8125 56.4121 17.7556 56.0343C17.6973 55.5086 17.423 55.3649 16.93 55.3678C15.0102 55.3678 13.0933 55.3678 11.1736 55.3678H4.69364C2.31874 55.3678 1.00875 54.0636 1 51.7138C1 50.6595 1 49.6082 1 48.5539C1.02626 47.3474 1.50765 46.3449 2.61925 45.7732C4.752 44.6759 6.09116 42.9006 7.0773 40.8323C8.32682 38.1301 9.12107 35.2455 9.42886 32.2919C9.75855 29.448 9.86067 26.5783 10.1437 23.7286C10.6134 18.9974 12.2006 14.7516 15.8709 11.4567C16.9966 10.4328 18.3001 9.61647 19.7192 9.04658C20.2589 8.83113 20.4252 8.52375 20.4281 7.96646C20.3932 6.82238 20.4507 5.6774 20.6003 4.54231C20.9475 2.48263 22.9343 0.974474 25.0291 1.00033C27.124 1.02618 29.0437 2.51424 29.3734 4.55093C29.566 5.72009 29.528 6.92945 29.5572 8.1216C29.5403 8.30918 29.589 8.49682 29.6951 8.65352C29.8012 8.81021 29.9584 8.92658 30.1407 8.98339C34.8088 10.9712 37.4989 14.5994 38.9635 19.2444C39.5947 21.3546 39.9294 23.5399 39.9584 25.7395C40.0955 30.149 40.6002 34.5067 42.0386 38.7151C42.7563 40.815 43.7016 42.8086 45.3763 44.3512C45.952 44.8622 46.5831 45.3092 47.2581 45.6842C47.7848 45.962 48.2241 46.3767 48.5281 46.8832C48.8321 47.3897 48.9892 47.9685 48.9824 48.5568C49.0087 49.7058 49.0028 50.8549 48.9824 52.0039C48.9533 53.9746 47.582 55.3132 45.5718 55.3621H39.3894V55.3649ZM24.9766 54.0636H45.3734C46.9926 54.0636 47.7074 53.3484 47.7074 51.7368C47.7074 50.8032 47.6754 49.8696 47.7074 48.9388C47.7512 47.8616 47.2932 47.1492 46.3449 46.612C45.6111 46.1959 44.9328 45.6912 44.326 45.1096C42.5346 43.4033 41.5134 41.2373 40.7461 38.9507C39.3807 34.8802 38.8263 30.6775 38.6746 26.4059C38.6346 24.9262 38.4991 23.4506 38.2691 21.9878C37.6652 18.3309 36.148 15.0935 33.3559 12.5311C31.0645 10.4087 28.0308 9.2371 24.885 9.25957C21.7391 9.28204 18.723 10.4969 16.4631 12.6517C13.2888 15.6536 11.8592 19.4427 11.4303 23.6482C11.1998 25.9262 11.1794 28.2272 10.9693 30.5109C10.7068 33.8499 9.94788 37.1329 8.71697 40.2549C7.58204 43.0413 5.9832 45.4773 3.17358 46.9223C2.51129 47.2641 2.28081 47.9047 2.27498 48.6142C2.27498 49.6196 2.27498 50.6251 2.27498 51.6276C2.27498 53.3857 2.9606 54.0636 4.72573 54.0665L24.9766 54.0636ZM24.9941 55.3132C23.2232 55.3132 21.4522 55.3132 19.6812 55.3132C18.9898 55.3132 18.9197 55.4166 19.0598 56.0774C19.617 58.7144 22.2312 60.7511 25.035 60.7339C27.8388 60.7166 30.3975 58.6713 30.9372 56.0716C31.0714 55.4166 31.0014 55.3161 30.307 55.3132C28.5361 55.3075 26.7651 55.3132 24.9941 55.3132ZM28.2501 8.2681C28.2501 7.27417 28.2676 6.35206 28.2501 5.43282C28.2501 4.58485 27.908 3.77162 27.299 3.17202C26.6901 2.57242 25.8641 2.23557 25.0029 2.23557C24.1417 2.23557 23.3157 2.57242 22.7067 3.17202C22.0978 3.77162 21.7556 4.58485 21.7556 5.43282C21.7352 6.1481 21.7556 6.86913 21.7556 7.58154C21.7556 8.29395 21.849 8.36002 22.5813 8.22213C24.1806 7.91474 25.8252 7.91474 27.4245 8.22213C27.6433 8.25086 27.8825 8.24225 28.2501 8.2681Z" fill="#D8D8D8" stroke="#D8D8D8"/>
</svg>