<svg width="32" height="30" viewBox="0 0 32 30" fill="none" xmlns="http://www.w3.org/2000/svg">
<path d="M31.4676 15.02C31.4676 17.2551 31.4458 19.4917 31.4757 21.7254C31.4921 22.9628 31.0675 23.9693 30.2864 24.8327C29.4359 25.772 28.3895 26.3958 27.2832 26.9115C25.8109 27.5716 24.2752 28.0552 22.7041 28.3534C20.2011 28.8669 17.6521 29.0756 15.1055 28.9757C13.9202 28.929 12.7364 28.8004 11.5566 28.6529C9.97147 28.458 8.40781 28.0979 6.88771 27.5777C5.57999 27.1277 4.31718 26.5711 3.18773 25.7151C2.35221 25.0825 1.61875 24.3418 1.26766 23.2798C1.11658 22.8364 1.03295 22.3697 1.02 21.8978C0.998228 19.9052 1.02 17.914 1.02 15.9213C1.02 13.8206 1.02 11.7194 1.02 9.61766C1.02 9.26559 1.03225 8.91206 1.01048 8.56145C0.917942 7.08304 1.44184 5.88951 2.44746 4.90926C3.33061 4.04734 4.36481 3.45714 5.45752 2.97067C6.75714 2.40407 8.10594 1.97736 9.48409 1.69679C12.5756 1.05309 15.7331 0.854118 18.8735 1.10513C21.7502 1.34617 24.5738 1.85603 27.2519 3.07148C28.1659 3.47038 29.0202 4.01186 29.787 4.67845C30.5817 5.38551 31.1913 6.22697 31.3995 7.34162C31.4404 7.57961 31.4595 7.82131 31.4567 8.06329C31.4667 10.3793 31.4703 12.6982 31.4676 15.02ZM16.4255 12.6621C18.486 12.663 20.542 12.4526 22.5653 12.034C24.1547 11.6877 25.7087 11.2159 27.1552 10.4036C27.7263 10.1054 28.2491 9.71082 28.7038 9.23491C29.4577 8.40367 29.4631 7.61333 28.7188 6.78063C28.6092 6.65783 28.4924 6.54268 28.3691 6.43587C27.5839 5.75656 26.6871 5.30077 25.7523 4.9224C23.5396 4.02834 21.2331 3.60762 18.8898 3.43816C16.1098 3.2047 13.3137 3.34011 10.5645 3.84135C8.76559 4.18319 7.00746 4.67551 5.37315 5.58126C4.74719 5.92749 4.14845 6.32338 3.67898 6.89605C3.06254 7.64986 3.05029 8.36716 3.69394 9.09906C4.00615 9.44948 4.35712 9.75756 4.73903 10.0165C6.19235 11.004 7.81576 11.5314 9.47728 11.9259C11.7076 12.4605 13.9733 12.6519 16.4255 12.6621ZM29.2577 18.7978C29.1379 18.865 29.0563 18.9045 28.9855 18.9541C28.1225 19.5354 27.1991 20.0061 26.234 20.3566C23.4212 21.4172 20.5024 21.8481 17.5413 21.9723C14.5982 22.1063 11.6515 21.8219 8.77784 21.1265C6.89451 20.6648 5.07514 20.022 3.42995 18.9001C3.36845 18.8699 3.30413 18.8469 3.23808 18.8314C3.22856 18.9468 3.21631 19.0301 3.21631 19.1134C3.21631 20.0483 3.23672 20.9833 3.22856 21.9183C3.21696 22.3112 3.34993 22.6932 3.59869 22.9818C3.83201 23.2618 4.08893 23.518 4.36617 23.7473C5.09444 24.3037 5.89256 24.7463 6.73666 25.062C8.96971 25.9663 11.298 26.3768 13.6631 26.558C16.1937 26.761 18.7375 26.663 21.2481 26.2658C22.9763 25.9868 24.6691 25.5675 26.283 24.8356C27.0954 24.4931 27.8516 24.0132 28.5228 23.4142C29.0059 22.9642 29.3094 22.4296 29.2971 21.7123C29.2821 20.8007 29.2971 19.8891 29.2971 18.979C29.2879 18.9177 29.2747 18.8571 29.2577 18.7978ZM3.25033 11.8075C3.23214 11.9098 3.21987 12.0133 3.21359 12.1172C3.21359 13.0522 3.234 13.9886 3.22583 14.9236C3.2146 15.3166 3.34864 15.6984 3.59869 15.9856C3.83268 16.2649 4.08954 16.5211 4.36617 16.7511C5.09505 17.3073 5.89359 17.75 6.73802 18.0659C8.96971 18.9687 11.2994 19.3807 13.6644 19.5604C16.1946 19.7642 18.738 19.6662 21.2481 19.2682C22.9763 18.9877 24.6691 18.5699 26.283 17.8366C27.0956 17.4952 27.8515 17.0152 28.5215 16.4151C28.9828 15.9769 29.2944 15.4743 29.2876 14.7833C29.2794 13.8352 29.2876 12.8842 29.2876 11.9405C29.2876 11.901 29.2563 11.8616 29.2318 11.8046C29.1338 11.8601 29.0522 11.8995 28.9787 11.9507C28.1148 12.5306 27.1909 13.0008 26.2258 13.3517C23.4131 14.4123 20.4942 14.8461 17.5345 14.9586C14.2974 15.1171 11.0562 14.7602 7.91646 13.8995C6.36789 13.4612 4.87374 12.8769 3.5116 11.9551C3.43948 11.9054 3.36055 11.8689 3.25033 11.8075Z" fill="#8066FF" stroke="#8066FF"/>
</svg>