<svg width="32" height="34" viewBox="0 0 32 34" fill="none" xmlns="http://www.w3.org/2000/svg">
<path d="M11.2803 13C11.2803 12.6045 11.1707 12.2178 10.9653 11.8889C10.7599 11.56 10.468 11.3036 10.1265 11.1522C9.78491 11.0009 9.4091 10.9613 9.04653 11.0384C8.68395 11.1156 8.35089 11.3061 8.08949 11.5858C7.82808 11.8655 7.65003 12.2219 7.57791 12.6098C7.50579 12.9978 7.5428 13.4 7.68427 13.7654C7.82574 14.1309 8.06534 14.4432 8.37272 14.663C8.6801 14.8827 9.04146 15 9.41114 15C9.90687 15 10.3823 14.7893 10.7328 14.4143C11.0833 14.0392 11.2803 13.5304 11.2803 13Z" fill="#8066FF"/>
<path d="M15.9531 15C16.9855 15 17.8223 14.1046 17.8223 13C17.8223 11.8954 16.9855 11 15.9531 11C14.9208 11 14.084 11.8954 14.084 13C14.084 14.1046 14.9208 15 15.9531 15Z" fill="#8066FF"/>
<path d="M22.4954 15C23.5277 15 24.3645 14.1046 24.3645 13C24.3645 11.8954 23.5277 11 22.4954 11C21.4631 11 20.6262 11.8954 20.6262 13C20.6262 14.1046 21.4631 15 22.4954 15Z" fill="#8066FF"/>
<path d="M29.6464 1.00009H2.26021C2.09418 0.997969 1.92943 1.03179 1.77566 1.09954C1.62188 1.16729 1.48221 1.26759 1.3648 1.39459C1.24739 1.52158 1.15466 1.67271 1.09203 1.83904C1.02939 2.00537 0.998122 2.18357 1.00009 2.36316V24.7899C1.00009 25.1514 1.13286 25.4981 1.36918 25.7537C1.6055 26.0093 1.926 26.153 2.26021 26.153H7.79904V31.6368C7.79961 31.901 7.87029 32.1595 8.00277 32.3815C8.13525 32.6034 8.32388 32.7796 8.54626 32.8889C8.70789 32.9652 8.88284 33.003 9.05916 32.9998C9.37493 32.9992 9.67873 32.869 9.90905 32.6353L16.4588 26.153H29.6464C29.9794 26.1488 30.2977 26.0039 30.5332 25.7492C30.7687 25.4944 30.9027 25.1501 30.9065 24.7899V2.36316C30.9065 2.00166 30.7738 1.65494 30.5374 1.39933C30.3011 1.14371 29.9806 1.00009 29.6464 1.00009ZM9.13241 23.4269H3.59358V3.72617H28.5035V23.4269H16.0485C15.7357 23.4291 15.4342 23.5529 15.1987 23.7756L10.4072 28.5303V24.7899C10.4072 24.6096 10.3741 24.431 10.3099 24.2646C10.2457 24.0982 10.1515 23.9472 10.0329 23.8204C9.91435 23.6937 9.77369 23.5936 9.61911 23.526C9.46453 23.4585 9.29912 23.4248 9.13241 23.4269Z" fill="#8066FF" stroke="#8066FF"/>
</svg>