<svg width="30" height="32" viewBox="0 0 30 32" fill="none" xmlns="http://www.w3.org/2000/svg">
<path d="M15.2852 29.2608C15.1104 29.451 14.9615 29.6334 14.7892 29.7963C13.7871 30.7644 12.6052 31.1696 11.2634 30.935C9.92152 30.7005 8.8835 29.9188 8.23366 28.6328C8.19348 28.5385 8.13166 28.4562 8.05374 28.3932C7.97582 28.3302 7.88423 28.2885 7.7872 28.2719C5.99268 27.8459 4.88646 26.6719 4.47101 24.7918C4.36353 24.2807 4.36015 23.7514 4.46108 23.2388C4.49085 23.0707 4.44 23.0095 4.29118 22.9782C3.2855 22.7507 2.39545 22.1405 1.79238 21.2649C1.1893 20.3893 0.915824 19.3103 1.02459 18.2356C1.0892 17.5264 1.32574 16.8463 1.71164 16.2604C1.75819 16.2055 1.78391 16.1346 1.78391 16.0611C1.78391 15.9876 1.75819 15.9166 1.71164 15.8617C1.33051 15.2679 1.09396 14.5848 1.02277 13.8725C0.95158 13.1602 1.04793 12.4405 1.30335 11.7764C1.55877 11.1124 1.96546 10.5244 2.48771 10.064C3.00995 9.60365 3.63179 9.28503 4.29862 9.13612C4.43008 9.10876 4.48589 9.05926 4.4586 8.9003C4.31974 8.05859 4.41767 7.19261 4.74039 6.40851C5.06311 5.62442 5.5966 4.9563 6.27544 4.48606C6.72334 4.16713 7.23059 3.95175 7.76364 3.85415C7.84513 3.84385 7.92236 3.81019 7.98689 3.75688C8.05141 3.70357 8.10074 3.63265 8.12948 3.55187C8.42164 2.89438 8.86382 2.32287 9.41677 1.88807C9.95813 1.44735 10.5991 1.16181 11.277 1.05941C12.7851 0.831404 14.0451 1.32911 15.0682 2.50824L15.2307 2.69587C15.2586 2.71649 15.2851 2.73913 15.31 2.76362C15.3491 2.69135 15.393 2.62211 15.4415 2.55645C16.3741 1.42683 17.5622 0.901766 18.9722 1.01512C19.5076 1.0513 20.0304 1.20151 20.5089 1.45663C20.9873 1.71175 21.4113 2.06644 21.7551 2.49913C22.0043 2.81332 22.2217 3.15391 22.4037 3.5154C22.4427 3.60774 22.503 3.68833 22.5793 3.74979C22.6556 3.81125 22.7453 3.85162 22.8403 3.86718C23.5832 4.00828 24.2698 4.37732 24.8134 4.92775C25.8464 5.97007 26.2855 7.24171 26.1143 8.74266C26.0709 9.12441 26.0052 9.06057 26.3748 9.16741C28.0577 9.65599 29.1105 10.796 29.4752 12.5849C29.5882 13.121 29.5968 13.6757 29.5002 14.2153C29.4036 14.755 29.204 15.2685 28.9134 15.7249C28.7608 15.9751 28.7583 16.1419 28.9134 16.392C29.2669 16.9867 29.479 17.662 29.5319 18.361C29.5847 19.0599 29.4767 19.762 29.2169 20.4078C28.9572 21.0537 28.5533 21.6244 28.0394 22.0718C27.5255 22.5191 26.9167 22.83 26.2644 22.9782C26.118 23.0095 26.0622 23.0629 26.0895 23.2388C26.1999 23.8755 26.1712 24.5303 26.0056 25.1537C25.84 25.7771 25.5417 26.3528 25.1333 26.8374C24.4928 27.6301 23.6024 28.1545 22.6245 28.3149C22.577 28.3287 22.5326 28.3523 22.4939 28.3843C22.4551 28.4162 22.4228 28.456 22.3988 28.5012C22.1049 29.1408 21.6684 29.6964 21.1264 30.1207C20.2693 30.7955 19.1978 31.0978 18.1343 30.9649C17.0707 30.832 16.0967 30.274 15.4142 29.4067C15.3758 29.3598 15.3361 29.3194 15.2852 29.2608ZM14.4295 17.8369C14.3662 17.87 14.3045 17.9066 14.2447 17.9464C13.6783 18.3501 13.0247 18.5986 12.3436 18.6695C12.1173 18.7014 11.8875 18.6899 11.6652 18.6356C11.4818 18.5783 11.3241 18.4539 11.2206 18.2849C11.117 18.1159 11.0746 17.9135 11.1009 17.7145C11.123 17.5118 11.2118 17.3237 11.352 17.1826C11.4922 17.0415 11.6749 16.9563 11.8686 16.9418C12.2415 16.9355 12.6097 16.8528 12.9525 16.6982C13.9235 16.2005 14.4307 15.3705 14.4407 14.2396C14.4518 11.3224 14.4407 8.40519 14.4407 5.48799C14.4528 4.93209 14.3008 4.38588 14.0054 3.9245C13.8231 3.63662 13.588 3.38973 13.314 3.19823C13.04 3.00673 12.7324 2.87446 12.4092 2.80909C12.086 2.74373 11.7536 2.74659 11.4315 2.81752C11.1094 2.88846 10.8039 3.02604 10.5329 3.22225C10.2547 3.40487 10.0241 3.6574 9.86199 3.95707C9.94136 3.99095 10.0083 4.02223 10.0765 4.04829C10.6236 4.26408 11.1201 4.60088 11.5325 5.03588C11.668 5.17238 11.7555 5.35297 11.7809 5.54834C11.8064 5.74371 11.7682 5.94238 11.6726 6.11208C11.5807 6.28464 11.4338 6.41757 11.2577 6.48742C11.0817 6.55726 10.8878 6.55954 10.7103 6.49384C10.5004 6.38507 10.3052 6.24749 10.1299 6.08473C9.356 5.47106 8.50649 5.34859 7.6235 5.72904C7.07264 5.96622 6.62077 6.4027 6.34962 6.95951C6.07848 7.51633 6.00598 8.1567 6.14522 8.7648C6.20103 9.03319 6.30396 9.21821 6.59168 9.3042C7.17325 9.49875 7.69989 9.84164 8.12452 10.3022C8.28051 10.4572 8.37354 10.6695 8.38422 10.8948C8.3949 11.1201 8.3224 11.341 8.18185 11.5115C8.04129 11.682 7.84352 11.789 7.62975 11.8101C7.41599 11.8311 7.20273 11.7647 7.03442 11.6247C6.9104 11.5218 6.78639 11.4019 6.66237 11.3055C5.87239 10.7244 5.01916 10.6227 4.14732 11.0449C3.27549 11.467 2.80919 12.2019 2.69633 13.2012C2.5934 14.1132 3.11675 15.2051 3.87821 15.6767C4.29674 15.9207 4.76408 16.0577 5.24239 16.0767C5.46325 16.0879 5.67082 16.1909 5.81944 16.3629C5.96805 16.5349 6.04554 16.7619 6.03485 16.9939C6.02416 17.226 5.92617 17.4441 5.76243 17.6002C5.5987 17.7563 5.38264 17.8377 5.16177 17.8265C4.69603 17.8242 4.23429 17.736 3.79759 17.5659C3.56816 17.4734 3.3437 17.3666 3.10931 17.2624C3.0783 17.3093 3.0473 17.3483 3.02373 17.3926C2.84824 17.7014 2.73773 18.046 2.69965 18.4033C2.66157 18.7607 2.69681 19.1224 2.80299 19.4643C3.09566 20.4401 3.73311 21.0564 4.67563 21.2727C5.07633 21.376 5.49581 21.3669 5.89213 21.2464C6.28845 21.1259 6.64771 20.8982 6.93397 20.5861C7.61357 19.8786 7.83928 19.0148 7.60737 18.0246C7.49328 17.5412 7.22664 17.1594 6.929 16.7881C6.78182 16.6153 6.70599 16.3882 6.7182 16.1567C6.73041 15.9252 6.82966 15.7082 6.99412 15.5536C7.15857 15.3989 7.37476 15.3193 7.59513 15.3321C7.81549 15.3449 8.02198 15.4492 8.16917 15.622C9.10797 16.6539 9.50358 17.8812 9.3312 19.3027C9.29028 19.6336 9.28531 19.6323 9.60031 19.7118C9.66108 19.7274 9.72433 19.747 9.78014 19.7652C10.6354 20.0336 11.387 20.5811 11.9262 21.3284C12.4654 22.0756 12.764 22.9839 12.7789 23.9215C12.786 24.0556 12.7639 24.1896 12.7142 24.3133C12.6646 24.437 12.5887 24.5472 12.4924 24.6355C12.3755 24.7433 12.2323 24.8146 12.0789 24.8414C11.9255 24.8682 11.768 24.8493 11.6243 24.787C11.4805 24.7246 11.3563 24.6213 11.2655 24.4886C11.1748 24.3559 11.1212 24.1992 11.1108 24.0362C11.0992 23.6385 11.0172 23.2466 10.869 22.8805C10.7106 22.5182 10.4758 22.1985 10.1826 21.9455C9.88934 21.6925 9.54521 21.5128 9.17618 21.4199C8.81157 21.3183 8.50649 21.3131 8.22126 21.7013C7.82348 22.2347 7.27377 22.6205 6.65245 22.8023C6.30024 22.9091 6.19235 23.1411 6.1415 23.4629C6.13034 23.5267 6.12786 23.5932 6.12042 23.6557C6.0501 24.2199 6.1575 24.7928 6.42623 25.2869C6.69495 25.7809 7.11022 26.169 7.60861 26.3918C7.73263 26.4465 7.77604 26.4283 7.82316 26.2954C7.87657 26.1327 7.97695 25.9915 8.11033 25.8915C8.2437 25.7916 8.40343 25.7378 8.56726 25.7377C8.71809 25.721 8.87019 25.7531 9.00318 25.8297C9.13616 25.9063 9.24369 26.0238 9.31136 26.1664C9.38727 26.329 9.42953 26.5066 9.43537 26.6876C9.45399 27.2314 9.6321 27.7558 9.94534 28.1891C10.2586 28.6225 10.6916 28.9435 11.1852 29.1084C11.5778 29.2483 11.998 29.2795 12.4053 29.1989C12.8127 29.1183 13.1933 28.9287 13.5105 28.6484C14.1815 28.0908 14.4543 27.3351 14.4555 26.4556C14.4555 23.6622 14.4555 20.8684 14.4555 18.0741C14.4431 18.0037 14.4369 17.9346 14.4295 17.8369ZM16.1161 17.8369V18.0519C16.1161 20.8714 16.1161 23.6905 16.1161 26.5091C16.107 26.9278 16.192 27.343 16.3642 27.7208C16.5486 28.1359 16.8335 28.4928 17.1904 28.756C17.5474 29.0191 17.9638 29.1793 18.398 29.2204C19.2661 29.3364 20.3128 28.7918 20.7543 27.997C20.9909 27.5529 21.1247 27.0566 21.145 26.5481C21.1553 26.3545 21.2269 26.1701 21.3485 26.0242C21.4701 25.8783 21.6346 25.7793 21.8159 25.743C21.988 25.7141 22.1643 25.7403 22.322 25.8181C22.4797 25.896 22.6115 26.0219 22.7001 26.1794C22.7436 26.2615 22.7783 26.3996 22.8341 26.4114C22.9159 26.427 23.0152 26.354 23.1069 26.3149C23.1465 26.2963 23.1846 26.2745 23.221 26.2498C24.1883 25.6283 24.6236 24.6146 24.4302 23.4355C24.3781 23.1202 24.2752 22.8518 23.9192 22.801C23.8346 22.7806 23.7532 22.7477 23.6774 22.7033C23.0819 22.4225 22.556 22.0012 22.1408 21.472C22.0901 21.4019 22.0154 21.3552 21.9325 21.3417C21.5094 21.3478 21.0949 21.4675 20.7282 21.6894C20.3616 21.9113 20.0551 22.228 19.8379 22.6095C19.5774 23.042 19.4968 23.5215 19.4658 24.0205C19.4492 24.246 19.3502 24.456 19.1895 24.6065C19.0289 24.7571 18.819 24.8364 18.6039 24.828C18.3887 24.8196 18.1851 24.724 18.0355 24.5614C17.8859 24.3987 17.8021 24.1815 17.8015 23.9554C17.7981 23.6931 17.8202 23.4312 17.8672 23.1736C18.2393 21.3782 19.2748 20.2213 20.9528 19.7027C21.2901 19.5985 21.2814 19.6089 21.2392 19.2336C21.1538 18.5701 21.217 17.8947 21.4239 17.2613C21.6308 16.6279 21.9757 16.0541 22.431 15.5855C22.5378 15.4645 22.6768 15.3802 22.83 15.3437C22.9831 15.3072 23.1432 15.3202 23.2892 15.381C23.4178 15.4261 23.5337 15.5038 23.6269 15.6072C23.72 15.7106 23.7875 15.8365 23.8233 15.9738C23.8591 16.1111 23.8621 16.2556 23.8321 16.3944C23.8021 16.5333 23.7401 16.6622 23.6514 16.7699C23.3884 17.1086 23.1317 17.4461 23.0052 17.8747C22.877 18.2893 22.849 18.7309 22.9236 19.1598C22.9982 19.5886 23.1732 19.9912 23.4327 20.3314C23.6922 20.6715 24.0282 20.9386 24.4104 21.1084C24.7925 21.2783 25.2089 21.3457 25.622 21.3045C26.0351 21.2633 26.4319 21.1148 26.7768 20.8724C27.1218 20.6301 27.4039 20.3014 27.5979 19.916C27.7918 19.5306 27.8915 19.1006 27.888 18.6647C27.8845 18.2288 27.7779 17.8006 27.5777 17.4187C27.4934 17.261 27.4264 17.2428 27.2788 17.3249C26.722 17.6307 26.1051 17.7962 25.4769 17.8083C24.9659 17.8265 24.5716 17.4773 24.5492 16.9835C24.5269 16.4897 24.8692 16.1054 25.3801 16.0493C25.6639 16.0292 25.9445 15.9741 26.216 15.8852C27.1126 15.5529 27.6571 14.8702 27.8394 13.8982C27.9239 13.4948 27.9105 13.0754 27.8004 12.6788C27.6903 12.2822 27.4871 11.9211 27.2094 11.6286C26.5372 10.8846 25.7051 10.6423 24.7514 10.8781C24.3037 10.9889 23.9428 11.2521 23.5993 11.5595C23.2061 11.9113 22.6964 11.8827 22.3876 11.5048C22.0788 11.127 22.1396 10.5928 22.5191 10.2215C22.9771 9.77062 23.5249 9.4324 24.1226 9.23125C24.197 9.20649 24.2962 9.14655 24.3148 9.0801C24.3964 8.8352 24.4505 8.58116 24.4761 8.32311C24.5032 7.90649 24.4354 7.48909 24.2783 7.10552C24.1211 6.72194 23.8792 6.38324 23.5726 6.11752C23.266 5.85181 22.9035 5.66673 22.5151 5.57764C22.1268 5.48855 21.7238 5.49802 21.3397 5.60525C20.8796 5.72642 20.5137 6.00265 20.1603 6.31665C20.0789 6.39278 19.984 6.45121 19.881 6.48858C19.7781 6.52594 19.669 6.5415 19.5603 6.53435C19.4516 6.5272 19.3453 6.49748 19.2475 6.44692C19.1498 6.39636 19.0625 6.32595 18.9908 6.23977C18.9173 6.15532 18.8606 6.05627 18.8241 5.94844C18.7875 5.84061 18.7719 5.72618 18.7782 5.61192C18.7844 5.49765 18.8124 5.38585 18.8604 5.28312C18.9084 5.18038 18.9755 5.08879 19.0578 5.01374C19.3717 4.7396 19.7032 4.48841 20.0499 4.26196C20.2588 4.1395 20.4755 4.0324 20.6985 3.94144C20.6946 3.91935 20.6879 3.89789 20.6787 3.8776C20.4667 3.55012 20.1852 3.27891 19.8563 3.08536C19.5274 2.8918 19.1602 2.78121 18.7837 2.76232C17.3092 2.67372 16.1347 3.86197 16.1298 5.45152C16.1186 8.38175 16.1298 11.3146 16.1298 14.2409C16.1174 14.8247 16.2921 15.396 16.6258 15.863C17.1331 16.564 17.8164 16.8923 18.6423 16.9353C18.7551 16.9342 18.867 16.957 18.9711 17.0025C19.0753 17.048 19.1696 17.1151 19.2484 17.1999C19.3272 17.2847 19.3889 17.3854 19.4297 17.4959C19.4705 17.6063 19.4895 17.7243 19.4858 17.8428C19.482 17.9612 19.4555 18.0776 19.4077 18.185C19.36 18.2924 19.2921 18.3885 19.2081 18.4675C19.1241 18.5466 19.0257 18.607 18.9189 18.6451C18.812 18.6831 18.699 18.6981 18.5865 18.689C17.99 18.6844 17.402 18.5402 16.8652 18.2669C16.6196 18.1483 16.3902 17.9959 16.1198 17.8369H16.1161Z" fill="#8066FF" stroke="#8066FF" stroke-width="0.5"/>
<path d="M12.7565 11.6568C12.763 12.2269 12.6616 12.7927 12.458 13.3213C12.2545 13.8498 11.9529 14.3306 11.5709 14.7355C11.423 14.9059 11.2174 15.0086 10.9983 15.0215C10.7792 15.0344 10.564 14.9565 10.3989 14.8046C10.3171 14.7294 10.2502 14.6379 10.202 14.5355C10.1538 14.4331 10.1254 14.3217 10.1182 14.2077C10.1111 14.0937 10.1254 13.9793 10.1604 13.8711C10.1954 13.763 10.2503 13.6631 10.322 13.5773C10.6246 13.2007 10.8925 12.8098 11.0053 12.3213C11.1 11.9463 11.1134 11.5539 11.0445 11.1728C10.9756 10.7917 10.8262 10.4317 10.6073 10.1193C10.5142 9.98124 10.4026 9.85876 10.3034 9.72847C10.1718 9.55707 10.1065 9.33985 10.1205 9.12011C10.1345 8.90036 10.2268 8.69424 10.3791 8.54283C10.5323 8.38667 10.7373 8.29932 10.9508 8.29932C11.1642 8.29932 11.3693 8.38667 11.5225 8.54283C12.1697 9.19885 12.5896 10.0633 12.7155 10.9988C12.7317 11.1069 12.7478 11.2164 12.7552 11.3271C12.7627 11.4379 12.7565 11.546 12.7565 11.6568Z" fill="#8066FF" stroke="#8066FF" stroke-width="0.5"/>
<path d="M19.6518 8.30085C19.8005 8.30334 19.9455 8.35023 20.0698 8.43605C20.1941 8.52188 20.2925 8.64309 20.3537 8.78553C20.4268 8.93066 20.4578 9.09506 20.4431 9.2585C20.4283 9.42194 20.3684 9.57727 20.2706 9.70537C20.1181 9.92556 19.9407 10.1288 19.808 10.3568C19.5524 10.8238 19.4403 11.3623 19.4872 11.8987C19.534 12.4351 19.7375 12.9432 20.0697 13.3535C20.2134 13.5132 20.3266 13.7003 20.4033 13.9046C20.4608 14.0927 20.4532 14.296 20.3817 14.4787C20.3102 14.6614 20.1795 14.8115 20.0127 14.9027C19.8483 14.9972 19.6587 15.0313 19.4738 14.9997C19.2889 14.9681 19.1193 14.8725 18.992 14.7281C18.4485 14.1621 18.0703 13.4447 17.9019 12.6604C17.5844 11.1112 17.9466 9.75228 18.9759 8.5927C19.0605 8.49384 19.1651 8.41625 19.2821 8.36572C19.3992 8.3152 19.5255 8.29303 19.6518 8.30085Z" fill="#8066FF" stroke="#8066FF" stroke-width="0.5"/>
</svg>